{
  "source": "C:\\Users\\Peter\\Desktop\\stuff\\MIUN\\quantitative_research\\video_compression\\videos\\BVI-HD\\BVI-HD_CDVL_videos\\ORIG\\RockWater_1920x1080_30fps.mp4",
  "output": "C:\\Users\\Peter\\Desktop\\stuff\\MIUN\\quantitative_research\\video_compression\\compressed_videos\\BVI-HD\\h264\\1.5\\RockWater_1920x1080_30fps_h264.mp4",
  "codec": "h264",
  "ok": "Input #0, mov,mp4,m4a,3gp,3g2,mj2, from 'C:\\Users\\Peter\\Desktop\\stuff\\MIUN\\quantitative_research\\video_compression\\videos\\BVI-HD\\BVI-HD_CDVL_videos\\ORIG\\RockWater_1920x1080_30fps.mp4':\n  Metadata:\n    major_brand     : isom\n    minor_version   : 512\n    compatible_brands: isomiso2avc1mp41\n    encoder         : Lavf54.28.101\n  Duration: 00:00:05.00, start: 0.000000, bitrate: 245943 kb/s\n  Stream #0:0[0x1](und): Video: h264 (High 4:4:4 Predictive) (avc1 / 0x31637661), yuv420p(progressive), 1920x1080, 245940 kb/s, 30 fps, 30 tbr, 30 tbn (default)\n    Metadata:\n      handler_name    : VideoHandler\n      vendor_id       : [0][0][0][0]\n[out#0/mp4 @ 0000021fa7989cc0] Codec AVOption b:a (set bitrate (in bits/s)) has not been used for any stream. The most likely reason is either wrong type (e.g. a video option with no video streams) or that it is a private option of some decoder which was not actually used for any stream.\nStream mapping:\n  Stream #0:0 -> #0:0 (h264 (native) -> h264 (libx264))\nPress [q] to stop, [?] for help\n[libx264 @ 0000021fa8244740] using cpu capabilities: MMX2 SSE2Fast SSSE3 SSE4.2 AVX FMA3 BMI2 AVX2\n[libx264 @ 0000021fa8244740] profile High, level 5.0, 4:2:0, 8-bit\n[libx264 @ 0000021fa8244740] 264 - core 165 r3222 b35605a - H.264/MPEG-4 AVC codec - Copyleft 2003-2025 - http://www.videolan.org/x264.html - options: cabac=1 ref=5 deblock=1:0:0 analyse=0x3:0x113 me=hex subme=8 psy=1 psy_rd=1.00:0.00 mixed_ref=1 me_range=16 chroma_me=1 trellis=2 8x8dct=1 cqm=0 deadzone=21,11 fast_pskip=1 chroma_qp_offset=-2 threads=18 lookahead_threads=3 sliced_threads=0 nr=0 decimate=1 interlaced=0 bluray_compat=0 constrained_intra=0 bframes=3 b_pyramid=2 b_adapt=1 b_bias=0 direct=3 weightb=1 open_gop=0 weightp=2 keyint=250 keyint_min=25 scenecut=40 intra_refresh=0 rc_lookahead=50 rc=cbr mbtree=1 bitrate=1500 ratetol=1.0 qcomp=0.60 qpmin=0 qpmax=69 qpstep=4 vbv_maxrate=1500 vbv_bufsize=1500 nal_hrd=none filler=0 ip_ratio=1.40 aq=1:1.00\nOutput #0, mp4, to 'C:\\Users\\Peter\\Desktop\\stuff\\MIUN\\quantitative_research\\video_compression\\compressed_videos\\BVI-HD\\h264\\1.5\\RockWater_1920x1080_30fps_h264.mp4':\n  Metadata:\n    major_brand     : isom\n    minor_version   : 512\n    compatible_brands: isomiso2avc1mp41\n    encoder         : Lavf62.3.100\n  Stream #0:0(und): Video: h264 (avc1 / 0x31637661), yuv420p(tv, progressive), 1920x1080, q=2-31, 1500 kb/s, 30 fps, 15360 tbn (default)\n    Metadata:\n      encoder         : Lavc62.11.100 libx264\n      handler_name    : VideoHandler\n      vendor_id       : [0][0][0][0]\n    Side data:\n      cpb: bitrate max/min/avg: 1500000/0/1500000 buffer size: 1500000 vbv_delay: N/A\nframe=    0 fps=0.0 q=0.0 size=       0KiB time=N/A bitrate=N/A speed=N/A elapsed=0:00:01.48    \nframe=    0 fps=0.0 q=0.0 size=       0KiB time=N/A bitrate=N/A speed=N/A elapsed=0:00:02.01    \nframe=    6 fps=2.3 q=47.0 size=       0KiB time=00:00:00.06 bitrate=   5.8kbits/s speed=0.026x elapsed=0:00:02.56    \nframe=   24 fps=7.6 q=46.0 size=       0KiB time=00:00:00.73 bitrate=   0.5kbits/s speed=0.231x elapsed=0:00:03.17    \nframe=   45 fps= 12 q=46.0 size=       0KiB time=00:00:01.40 bitrate=   0.3kbits/s speed=0.368x elapsed=0:00:03.80    \nframe=   76 fps= 18 q=45.0 size=     256KiB time=00:00:02.33 bitrate= 898.9kbits/s speed=0.538x elapsed=0:00:04.33    \nframe=  114 fps= 23 q=44.0 size=     512KiB time=00:00:03.60 bitrate=1165.2kbits/s speed=0.732x elapsed=0:00:04.91    \nframe=  139 fps= 25 q=-1.0 size=     512KiB time=00:00:04.40 bitrate= 953.3kbits/s speed=0.789x elapsed=0:00:05.57    \n[mp4 @ 0000021fa7991300] Starting second pass: moving the moov atom to the beginning of the file\n[out#0/mp4 @ 0000021fa7989cc0] video:800KiB audio:0KiB subtitle:0KiB other streams:0KiB global headers:0KiB muxing overhead: 0.322685%\nframe=  150 fps= 26 q=-1.0 Lsize=     802KiB time=00:00:04.93 bitrate=1332.5kbits/s speed=0.847x elapsed=0:00:05.82    \n[libx264 @ 0000021fa8244740] frame I:1     Avg QP:43.63  size: 21543\n[libx264 @ 0000021fa8244740] frame P:40    Avg QP:44.19  size:  8203\n[libx264 @ 0000021fa8244740] frame B:109   Avg QP:48.19  size:  4299\n[libx264 @ 0000021fa8244740] consecutive B-frames:  1.3%  4.0%  4.0% 90.7%\n[libx264 @ 0000021fa8244740] mb I  I16..4: 56.8% 41.6%  1.6%\n[libx264 @ 0000021fa8244740] mb P  I16..4: 17.9%  8.0%  0.0%  P16..4: 24.2%  1.1%  2.1%  0.0%  0.0%    skip:46.7%\n[libx264 @ 0000021fa8244740] mb B  I16..4:  1.1%  0.7%  0.0%  B16..8: 38.2%  1.0%  0.0%  direct: 0.3%  skip:58.7%  L0:51.9% L1:47.2% BI: 1.0%\n[libx264 @ 0000021fa8244740] 8x8 transform intra:32.9% inter:83.6%\n[libx264 @ 0000021fa8244740] direct mvs  spatial:91.7% temporal:8.3%\n[libx264 @ 0000021fa8244740] coded y,uvDC,uvAC intra: 5.3% 4.7% 0.0% inter: 1.8% 0.1% 0.0%\n[libx264 @ 0000021fa8244740] i16 v,h,dc,p: 19% 48%  8% 26%\n[libx264 @ 0000021fa8244740] i8 v,h,dc,ddl,ddr,vr,hd,vl,hu:  2% 11% 63%  4%  4%  2%  6%  3%  5%\n[libx264 @ 0000021fa8244740] i4 v,h,dc,ddl,ddr,vr,hd,vl,hu:  3%  7% 27% 11% 10%  6% 13%  6% 18%\n[libx264 @ 0000021fa8244740] i8c dc,h,v,p: 99%  1%  0%  0%\n[libx264 @ 0000021fa8244740] Weighted P-Frames: Y:10.0% UV:0.0%\n[libx264 @ 0000021fa8244740] ref P L0: 48.3%  2.5% 21.9% 12.9% 13.4%  1.0%\n[libx264 @ 0000021fa8244740] ref B L0: 59.6% 22.3% 13.5%  4.6%\n[libx264 @ 0000021fa8244740] ref B L1: 89.5% 10.5%\n[libx264 @ 0000021fa8244740] kb/s:1309.28\n",
  "seconds": 6.318986654281616,
  "probe_out": {}
}